<svg width="151" height="82" viewBox="0 0 151 82" fill="none" xmlns="http://www.w3.org/2000/svg">
<path fill-rule="evenodd" clip-rule="evenodd" d="M-0.999992 0.99999H149V80.9998H-0.999992V0.99999Z" fill="#0B8457"/>
<path d="M45.36 36.12C44.768 36.12 44.272 35.936 43.872 35.568C43.488 35.184 43.296 34.712 43.296 34.152C43.296 33.592 43.488 33.128 43.872 32.76C44.272 32.376 44.768 32.184 45.36 32.184C45.952 32.184 46.44 32.376 46.824 32.76C47.224 33.128 47.424 33.592 47.424 34.152C47.424 34.712 47.224 35.184 46.824 35.568C46.44 35.936 45.952 36.12 45.36 36.12ZM47.016 37.704V51H43.656V37.704H47.016ZM60.1037 37.512C61.6877 37.512 62.9677 38.016 63.9437 39.024C64.9197 40.016 65.4077 41.408 65.4077 43.2V51H62.0477V43.656C62.0477 42.6 61.7837 41.792 61.2557 41.232C60.7277 40.656 60.0077 40.368 59.0957 40.368C58.1677 40.368 57.4317 40.656 56.8877 41.232C56.3597 41.792 56.0957 42.6 56.0957 43.656V51H52.7357V37.704H56.0957V39.36C56.5437 38.784 57.1117 38.336 57.7997 38.016C58.5037 37.68 59.2717 37.512 60.1037 37.512ZM74.9149 40.464V46.896C74.9149 47.344 75.0189 47.672 75.2269 47.88C75.4509 48.072 75.8189 48.168 76.3309 48.168H77.8909V51H75.7789C72.9469 51 71.5309 49.624 71.5309 46.872V40.464H69.9469V37.704H71.5309V34.416H74.9149V37.704H77.8909V40.464H74.9149ZM86.0676 39.768C86.4996 39.064 87.0596 38.512 87.7476 38.112C88.4516 37.712 89.2516 37.512 90.1476 37.512V41.04H89.2596C88.2036 41.04 87.4036 41.288 86.8596 41.784C86.3316 42.28 86.0676 43.144 86.0676 44.376V51H82.7076V37.704H86.0676V39.768ZM100.715 51.216C99.4347 51.216 98.2827 50.936 97.2587 50.376C96.2347 49.8 95.4267 48.992 94.8347 47.952C94.2587 46.912 93.9707 45.712 93.9707 44.352C93.9707 42.992 94.2667 41.792 94.8587 40.752C95.4667 39.712 96.2907 38.912 97.3307 38.352C98.3707 37.776 99.5307 37.488 100.811 37.488C102.091 37.488 103.251 37.776 104.291 38.352C105.331 38.912 106.147 39.712 106.739 40.752C107.347 41.792 107.651 42.992 107.651 44.352C107.651 45.712 107.339 46.912 106.715 47.952C106.107 48.992 105.275 49.8 104.219 50.376C103.179 50.936 102.011 51.216 100.715 51.216ZM100.715 48.288C101.323 48.288 101.891 48.144 102.419 47.856C102.963 47.552 103.395 47.104 103.715 46.512C104.035 45.92 104.195 45.2 104.195 44.352C104.195 43.088 103.859 42.12 103.187 41.448C102.531 40.76 101.723 40.416 100.763 40.416C99.8027 40.416 98.9947 40.76 98.3387 41.448C97.6987 42.12 97.3787 43.088 97.3787 44.352C97.3787 45.616 97.6907 46.592 98.3147 47.28C98.9547 47.952 99.7547 48.288 100.715 48.288Z" fill="white"/>
</svg>
