<svg width="557" height="63" viewBox="0 0 557 63" fill="none" xmlns="http://www.w3.org/2000/svg">
<path fill-rule="evenodd" clip-rule="evenodd" d="M2.00019 1.00013H556V61.0001H2.00019V1.00013Z" fill="white"/>
<path fill-rule="evenodd" clip-rule="evenodd" d="M519.914 31.0001L519.993 31.0784L518.578 32.4928L518.5 32.4145L512.922 37.9929L511.507 36.5785L516.086 32H502V29.9999H516.086L511.507 25.4217L512.922 24.0073L518.5 29.5858L518.578 29.5074L519.993 30.9218L519.914 31.0001ZM517.086 31.0001L517 30.9144V31.0858L517.086 31.0001Z" fill="#FE5C48"/>
<path d="M406.336 38.144C405.664 38.144 405.061 38.032 404.528 37.808C403.995 37.5733 403.573 37.2533 403.264 36.848C402.955 36.432 402.784 35.9573 402.752 35.424H404.256C404.299 35.8613 404.501 36.2187 404.864 36.496C405.237 36.7733 405.723 36.912 406.32 36.912C406.875 36.912 407.312 36.7893 407.632 36.544C407.952 36.2987 408.112 35.9893 408.112 35.616C408.112 35.232 407.941 34.9493 407.6 34.768C407.259 34.576 406.731 34.3893 406.016 34.208C405.365 34.0373 404.832 33.8667 404.416 33.696C404.011 33.5147 403.659 33.2533 403.36 32.912C403.072 32.56 402.928 32.1013 402.928 31.536C402.928 31.088 403.061 30.6773 403.328 30.304C403.595 29.9307 403.973 29.6373 404.464 29.424C404.955 29.2 405.515 29.088 406.144 29.088C407.115 29.088 407.899 29.3333 408.496 29.824C409.093 30.3147 409.413 30.9867 409.456 31.84H408C407.968 31.3813 407.781 31.0133 407.44 30.736C407.109 30.4587 406.661 30.32 406.096 30.32C405.573 30.32 405.157 30.432 404.848 30.656C404.539 30.88 404.384 31.1733 404.384 31.536C404.384 31.824 404.475 32.064 404.656 32.256C404.848 32.4373 405.083 32.5867 405.36 32.704C405.648 32.8107 406.043 32.9333 406.544 33.072C407.173 33.2427 407.685 33.4133 408.08 33.584C408.475 33.744 408.811 33.9893 409.088 34.32C409.376 34.6507 409.525 35.0827 409.536 35.616C409.536 36.096 409.403 36.528 409.136 36.912C408.869 37.296 408.491 37.6 408 37.824C407.52 38.0373 406.965 38.144 406.336 38.144ZM420.167 29.232V38H418.711V36.704C418.434 37.152 418.045 37.504 417.543 37.76C417.053 38.0053 416.509 38.128 415.911 38.128C415.229 38.128 414.615 37.9893 414.071 37.712C413.527 37.424 413.095 36.9973 412.775 36.432C412.466 35.8667 412.311 35.1787 412.311 34.368V29.232H413.751V34.176C413.751 35.04 413.97 35.7067 414.407 36.176C414.845 36.6347 415.442 36.864 416.199 36.864C416.978 36.864 417.591 36.624 418.039 36.144C418.487 35.664 418.711 34.9653 418.711 34.048V29.232H420.167ZM424.882 30.864C425.18 30.3413 425.618 29.9147 426.194 29.584C426.77 29.2533 427.426 29.088 428.162 29.088C428.951 29.088 429.66 29.2747 430.29 29.648C430.919 30.0213 431.415 30.5493 431.778 31.232C432.14 31.904 432.322 32.688 432.322 33.584C432.322 34.4693 432.14 35.2587 431.778 35.952C431.415 36.6453 430.914 37.184 430.274 37.568C429.644 37.952 428.94 38.144 428.162 38.144C427.404 38.144 426.738 37.9787 426.162 37.648C425.596 37.3173 425.17 36.896 424.882 36.384V38H423.426V26.16H424.882V30.864ZM430.834 33.584C430.834 32.9227 430.7 32.3467 430.434 31.856C430.167 31.3653 429.804 30.992 429.346 30.736C428.898 30.48 428.402 30.352 427.858 30.352C427.324 30.352 426.828 30.4853 426.37 30.752C425.922 31.008 425.559 31.3867 425.282 31.888C425.015 32.3787 424.882 32.9493 424.882 33.6C424.882 34.2613 425.015 34.8427 425.282 35.344C425.559 35.8347 425.922 36.2133 426.37 36.48C426.828 36.736 427.324 36.864 427.858 36.864C428.402 36.864 428.898 36.736 429.346 36.48C429.804 36.2133 430.167 35.8347 430.434 35.344C430.7 34.8427 430.834 34.256 430.834 33.584ZM438.142 38.144C437.47 38.144 436.868 38.032 436.334 37.808C435.801 37.5733 435.38 37.2533 435.07 36.848C434.761 36.432 434.59 35.9573 434.558 35.424H436.062C436.105 35.8613 436.308 36.2187 436.67 36.496C437.044 36.7733 437.529 36.912 438.126 36.912C438.681 36.912 439.118 36.7893 439.438 36.544C439.758 36.2987 439.918 35.9893 439.918 35.616C439.918 35.232 439.748 34.9493 439.406 34.768C439.065 34.576 438.537 34.3893 437.822 34.208C437.172 34.0373 436.638 33.8667 436.222 33.696C435.817 33.5147 435.465 33.2533 435.166 32.912C434.878 32.56 434.734 32.1013 434.734 31.536C434.734 31.088 434.868 30.6773 435.134 30.304C435.401 29.9307 435.78 29.6373 436.27 29.424C436.761 29.2 437.321 29.088 437.95 29.088C438.921 29.088 439.705 29.3333 440.302 29.824C440.9 30.3147 441.22 30.9867 441.262 31.84H439.806C439.774 31.3813 439.588 31.0133 439.246 30.736C438.916 30.4587 438.468 30.32 437.902 30.32C437.38 30.32 436.964 30.432 436.654 30.656C436.345 30.88 436.19 31.1733 436.19 31.536C436.19 31.824 436.281 32.064 436.462 32.256C436.654 32.4373 436.889 32.5867 437.166 32.704C437.454 32.8107 437.849 32.9333 438.35 33.072C438.98 33.2427 439.492 33.4133 439.886 33.584C440.281 33.744 440.617 33.9893 440.894 34.32C441.182 34.6507 441.332 35.0827 441.342 35.616C441.342 36.096 441.209 36.528 440.942 36.912C440.676 37.296 440.297 37.6 439.806 37.824C439.326 38.0373 438.772 38.144 438.142 38.144ZM443.654 33.6C443.654 32.6933 443.835 31.904 444.198 31.232C444.56 30.5493 445.062 30.0213 445.702 29.648C446.352 29.2747 447.094 29.088 447.926 29.088C449.003 29.088 449.888 29.3493 450.582 29.872C451.286 30.3947 451.75 31.12 451.974 32.048H450.406C450.256 31.5147 449.963 31.0933 449.526 30.784C449.099 30.4747 448.566 30.32 447.926 30.32C447.094 30.32 446.422 30.608 445.91 31.184C445.398 31.7493 445.142 32.5547 445.142 33.6C445.142 34.656 445.398 35.472 445.91 36.048C446.422 36.624 447.094 36.912 447.926 36.912C448.566 36.912 449.099 36.7627 449.526 36.464C449.952 36.1653 450.246 35.7387 450.406 35.184H451.974C451.739 36.08 451.27 36.8 450.566 37.344C449.862 37.8773 448.982 38.144 447.926 38.144C447.094 38.144 446.352 37.9573 445.702 37.584C445.062 37.2107 444.56 36.6827 444.198 36C443.835 35.3173 443.654 34.5173 443.654 33.6ZM456.172 30.656C456.428 30.1547 456.791 29.7653 457.26 29.488C457.74 29.2107 458.322 29.072 459.004 29.072V30.576H458.62C456.988 30.576 456.172 31.4613 456.172 33.232V38H454.716V29.232H456.172V30.656ZM462.237 27.808C461.96 27.808 461.725 27.712 461.533 27.52C461.341 27.328 461.245 27.0933 461.245 26.816C461.245 26.5387 461.341 26.304 461.533 26.112C461.725 25.92 461.96 25.824 462.237 25.824C462.504 25.824 462.728 25.92 462.909 26.112C463.101 26.304 463.197 26.5387 463.197 26.816C463.197 27.0933 463.101 27.328 462.909 27.52C462.728 27.712 462.504 27.808 462.237 27.808ZM462.941 29.232V38H461.485V29.232H462.941ZM467.679 30.864C467.977 30.3413 468.415 29.9147 468.991 29.584C469.567 29.2533 470.223 29.088 470.959 29.088C471.748 29.088 472.457 29.2747 473.087 29.648C473.716 30.0213 474.212 30.5493 474.575 31.232C474.937 31.904 475.119 32.688 475.119 33.584C475.119 34.4693 474.937 35.2587 474.575 35.952C474.212 36.6453 473.711 37.184 473.071 37.568C472.441 37.952 471.737 38.144 470.959 38.144C470.201 38.144 469.535 37.9787 468.959 37.648C468.393 37.3173 467.967 36.896 467.679 36.384V38H466.223V26.16H467.679V30.864ZM473.631 33.584C473.631 32.9227 473.497 32.3467 473.231 31.856C472.964 31.3653 472.601 30.992 472.143 30.736C471.695 30.48 471.199 30.352 470.655 30.352C470.121 30.352 469.625 30.4853 469.167 30.752C468.719 31.008 468.356 31.3867 468.079 31.888C467.812 32.3787 467.679 32.9493 467.679 33.6C467.679 34.2613 467.812 34.8427 468.079 35.344C468.356 35.8347 468.719 36.2133 469.167 36.48C469.625 36.736 470.121 36.864 470.655 36.864C471.199 36.864 471.695 36.736 472.143 36.48C472.601 36.2133 472.964 35.8347 473.231 35.344C473.497 34.8427 473.631 34.256 473.631 33.584ZM485.835 33.28C485.835 33.5573 485.819 33.8507 485.787 34.16H478.779C478.832 35.024 479.126 35.7013 479.659 36.192C480.203 36.672 480.859 36.912 481.627 36.912C482.256 36.912 482.779 36.768 483.195 36.48C483.622 36.1813 483.92 35.7867 484.091 35.296H485.659C485.424 36.1387 484.955 36.8267 484.251 37.36C483.547 37.8827 482.672 38.144 481.627 38.144C480.795 38.144 480.048 37.9573 479.387 37.584C478.736 37.2107 478.224 36.6827 477.851 36C477.478 35.3067 477.291 34.5067 477.291 33.6C477.291 32.6933 477.472 31.8987 477.835 31.216C478.198 30.5333 478.704 30.0107 479.355 29.648C480.016 29.2747 480.774 29.088 481.627 29.088C482.459 29.088 483.195 29.2693 483.835 29.632C484.475 29.9947 484.966 30.496 485.307 31.136C485.659 31.7653 485.835 32.48 485.835 33.28ZM484.331 32.976C484.331 32.4213 484.208 31.9467 483.963 31.552C483.718 31.1467 483.382 30.8427 482.955 30.64C482.539 30.4267 482.075 30.32 481.563 30.32C480.827 30.32 480.198 30.5547 479.675 31.024C479.163 31.4933 478.87 32.144 478.795 32.976H484.331Z" fill="#FE5C48"/>
<path d="M33.04 26.848L29.408 33.792V38H27.952V33.792L24.304 26.848H25.92L28.672 32.496L31.424 26.848H33.04ZM39.1998 38.144C38.3784 38.144 37.6318 37.9573 36.9598 37.584C36.2984 37.2107 35.7758 36.6827 35.3918 36C35.0184 35.3067 34.8318 34.5067 34.8318 33.6C34.8318 32.704 35.0238 31.9147 35.4078 31.232C35.8024 30.5387 36.3358 30.0107 37.0078 29.648C37.6798 29.2747 38.4318 29.088 39.2638 29.088C40.0958 29.088 40.8478 29.2747 41.5198 29.648C42.1918 30.0107 42.7198 30.5333 43.1038 31.216C43.4984 31.8987 43.6958 32.6933 43.6958 33.6C43.6958 34.5067 43.4931 35.3067 43.0878 36C42.6931 36.6827 42.1544 37.2107 41.4718 37.584C40.7891 37.9573 40.0318 38.144 39.1998 38.144ZM39.1998 36.864C39.7224 36.864 40.2131 36.7413 40.6718 36.496C41.1304 36.2507 41.4984 35.8827 41.7758 35.392C42.0638 34.9013 42.2078 34.304 42.2078 33.6C42.2078 32.896 42.0691 32.2987 41.7918 31.808C41.5144 31.3173 41.1518 30.9547 40.7038 30.72C40.2558 30.4747 39.7704 30.352 39.2478 30.352C38.7144 30.352 38.2238 30.4747 37.7758 30.72C37.3384 30.9547 36.9864 31.3173 36.7198 31.808C36.4531 32.2987 36.3198 32.896 36.3198 33.6C36.3198 34.3147 36.4478 34.9173 36.7038 35.408C36.9704 35.8987 37.3224 36.2667 37.7598 36.512C38.1971 36.7467 38.6771 36.864 39.1998 36.864ZM54.1861 29.232V38H52.7301V36.704C52.4528 37.152 52.0635 37.504 51.5621 37.76C51.0715 38.0053 50.5275 38.128 49.9301 38.128C49.2475 38.128 48.6341 37.9893 48.0901 37.712C47.5461 37.424 47.1141 36.9973 46.7941 36.432C46.4848 35.8667 46.3301 35.1787 46.3301 34.368V29.232H47.7701V34.176C47.7701 35.04 47.9888 35.7067 48.4261 36.176C48.8635 36.6347 49.4608 36.864 50.2181 36.864C50.9968 36.864 51.6101 36.624 52.0581 36.144C52.5061 35.664 52.7301 34.9653 52.7301 34.048V29.232H54.1861ZM58.9005 30.656C59.1565 30.1547 59.5192 29.7653 59.9885 29.488C60.4685 29.2107 61.0498 29.072 61.7325 29.072V30.576H61.3485C59.7165 30.576 58.9005 31.4613 58.9005 33.232V38H57.4445V29.232H58.9005V30.656ZM77.2789 33.28C77.2789 33.5573 77.2629 33.8507 77.2309 34.16H70.2229C70.2762 35.024 70.5695 35.7013 71.1029 36.192C71.6469 36.672 72.3029 36.912 73.0709 36.912C73.7002 36.912 74.2229 36.768 74.6389 36.48C75.0655 36.1813 75.3642 35.7867 75.5349 35.296H77.1029C76.8682 36.1387 76.3989 36.8267 75.6949 37.36C74.9909 37.8827 74.1162 38.144 73.0709 38.144C72.2389 38.144 71.4922 37.9573 70.8309 37.584C70.1802 37.2107 69.6682 36.6827 69.2949 36C68.9215 35.3067 68.7349 34.5067 68.7349 33.6C68.7349 32.6933 68.9162 31.8987 69.2789 31.216C69.6415 30.5333 70.1482 30.0107 70.7989 29.648C71.4602 29.2747 72.2175 29.088 73.0709 29.088C73.9029 29.088 74.6389 29.2693 75.2789 29.632C75.9189 29.9947 76.4095 30.496 76.7509 31.136C77.1029 31.7653 77.2789 32.48 77.2789 33.28ZM75.7749 32.976C75.7749 32.4213 75.6522 31.9467 75.4069 31.552C75.1615 31.1467 74.8255 30.8427 74.3989 30.64C73.9829 30.4267 73.5189 30.32 73.0069 30.32C72.2709 30.32 71.6415 30.5547 71.1189 31.024C70.6069 31.4933 70.3135 32.144 70.2389 32.976H75.7749ZM90.5448 29.072C91.2274 29.072 91.8354 29.216 92.3687 29.504C92.9021 29.7813 93.3234 30.2027 93.6327 30.768C93.9421 31.3333 94.0968 32.0213 94.0968 32.832V38H92.6567V33.04C92.6567 32.1653 92.4381 31.4987 92.0007 31.04C91.5741 30.5707 90.9928 30.336 90.2568 30.336C89.4994 30.336 88.8967 30.5813 88.4487 31.072C88.0007 31.552 87.7767 32.2507 87.7767 33.168V38H86.3367V33.04C86.3367 32.1653 86.1181 31.4987 85.6807 31.04C85.2541 30.5707 84.6727 30.336 83.9367 30.336C83.1794 30.336 82.5767 30.5813 82.1287 31.072C81.6807 31.552 81.4567 32.2507 81.4567 33.168V38H80.0007V29.232H81.4567V30.496C81.7447 30.0373 82.1287 29.6853 82.6087 29.44C83.0994 29.1947 83.6381 29.072 84.2247 29.072C84.9607 29.072 85.6114 29.2373 86.1767 29.568C86.7421 29.8987 87.1634 30.384 87.4408 31.024C87.6861 30.4053 88.0914 29.9253 88.6567 29.584C89.2221 29.2427 89.8514 29.072 90.5448 29.072ZM96.7411 33.584C96.7411 32.688 96.9225 31.904 97.2851 31.232C97.6478 30.5493 98.1438 30.0213 98.7731 29.648C99.4131 29.2747 100.122 29.088 100.901 29.088C101.669 29.088 102.336 29.2533 102.901 29.584C103.466 29.9147 103.888 30.3307 104.165 30.832V29.232H105.637V38H104.165V36.368C103.877 36.88 103.445 37.3067 102.869 37.648C102.304 37.9787 101.642 38.144 100.885 38.144C100.106 38.144 99.4025 37.952 98.7731 37.568C98.1438 37.184 97.6478 36.6453 97.2851 35.952C96.9225 35.2587 96.7411 34.4693 96.7411 33.584ZM104.165 33.6C104.165 32.9387 104.032 32.3627 103.765 31.872C103.498 31.3813 103.136 31.008 102.677 30.752C102.229 30.4853 101.733 30.352 101.189 30.352C100.645 30.352 100.149 30.48 99.7011 30.736C99.2531 30.992 98.8958 31.3653 98.6291 31.856C98.3625 32.3467 98.2291 32.9227 98.2291 33.584C98.2291 34.256 98.3625 34.8427 98.6291 35.344C98.8958 35.8347 99.2531 36.2133 99.7011 36.48C100.149 36.736 100.645 36.864 101.189 36.864C101.733 36.864 102.229 36.736 102.677 36.48C103.136 36.2133 103.498 35.8347 103.765 35.344C104.032 34.8427 104.165 34.2613 104.165 33.6ZM109.65 27.808C109.372 27.808 109.138 27.712 108.946 27.52C108.754 27.328 108.658 27.0933 108.658 26.816C108.658 26.5387 108.754 26.304 108.946 26.112C109.138 25.92 109.372 25.824 109.65 25.824C109.916 25.824 110.14 25.92 110.322 26.112C110.514 26.304 110.61 26.5387 110.61 26.816C110.61 27.0933 110.514 27.328 110.322 27.52C110.14 27.712 109.916 27.808 109.65 27.808ZM110.354 29.232V38H108.898V29.232H110.354ZM115.091 26.16V38H113.635V26.16H115.091Z" fill="black"/>
</svg>
